<svg height="512" viewBox="0 0 512 512" width="512" xmlns="http://www.w3.org/2000/svg"><g><g><circle cx="256" cy="384" fill="#ff9811" r="112"/><circle cx="256" cy="384" fill="#ffda44" r="80"/><path d="m232 274.59v-170.59h48v170.59" fill="#91cc04"/><path d="m347.92 320h28.08v-112h-48v90.21" fill="#d80027"/><path d="m424 176h48v144h-48z" fill="#ffda44"/><path d="m40 144h48v176h-48z" fill="#91cc04"/><g fill="#acabb1"><path d="m164.08 320h-28.08v-144h48v122.21"/><circle cx="256" cy="40" r="24"/><circle cx="160" cy="112" r="24"/><circle cx="448" cy="112" r="24"/></g><circle cx="352" cy="144" fill="#ffda44" r="24"/><circle cx="64" cy="80" fill="#ffda44" r="24"/><path d="m32 368h88v32h-88z" fill="#d80027"/><path d="m392 368h88v32h-88z" fill="#d8d7da"/></g><g><path d="m256 296a88 88 0 1 0 88 88 88.1 88.1 0 0 0 -88-88zm0 160a72 72 0 1 1 72-72 72.083 72.083 0 0 1 -72 72z"/><path d="m64 112a31.994 31.994 0 0 0 26.845-14.616l37.24 12.408c-.05.73-.085 1.465-.085 2.208a32 32 0 1 0 61.583-12.187l46.448-34.835a31.92 31.92 0 0 0 35.105 3.208l53.98 58.491a31.992 31.992 0 1 0 58.884 17.323c0-.743-.035-1.478-.085-2.208l37.24-12.408a31.975 31.975 0 1 0 -5.155-17.384c0 .743.035 1.478.085 2.208l-37.24 12.408a31.955 31.955 0 0 0 -41.981-10.8l-53.98-58.491a31.994 31.994 0 1 0 -56.467-5.136l-46.448 34.833a31.939 31.939 0 0 0 -46.814 7.594l-37.24-12.408c.05-.73.085-1.465.085-2.208a32 32 0 1 0 -32 32zm384-16a16 16 0 1 1 -16 16 16.019 16.019 0 0 1 16-16zm-80 48a16 16 0 1 1 -16-16 16.019 16.019 0 0 1 16 16zm-112-120a16 16 0 1 1 -16 16 16.019 16.019 0 0 1 16-16zm-96 72a16 16 0 1 1 -16 16 16.019 16.019 0 0 1 16-16zm-96-32a16 16 0 1 1 -16 16 16.019 16.019 0 0 1 16-16z"/><path d="m496 312h-16v-136a8 8 0 0 0 -8-8h-48a8 8 0 0 0 -8 8v136h-32v-104a8 8 0 0 0 -8-8h-48a8 8 0 0 0 -8 8v74.54a119.271 119.271 0 0 0 -32-14.2v-164.34a8 8 0 0 0 -8-8h-48a8 8 0 0 0 -8 8v164.34a119.271 119.271 0 0 0 -32 14.2v-106.54a8 8 0 0 0 -8-8h-48a8 8 0 0 0 -8 8v136h-32v-168a8 8 0 0 0 -8-8h-48a8 8 0 0 0 -8 8v168h-16a8 8 0 0 0 0 16h133.9a120 120 0 1 0 212.2 0h133.9a8 8 0 0 0 0-16zm-416 0h-32v-160h32zm160-200h32v153.07a120.161 120.161 0 0 0 -32 0zm-96 200v-128h32v110.64a120.9 120.9 0 0 0 -15.94 17.36zm112 176a104 104 0 1 1 104-104 104.112 104.112 0 0 1 -104 104zm112-176h-16.06a120.9 120.9 0 0 0 -15.94-17.36v-78.64h32zm96 0h-32v-128h32z"/><path d="m296 368a24.032 24.032 0 0 0 -24-24 8 8 0 0 0 -16 0h-8a8 8 0 0 0 -16 0h-8a8 8 0 0 0 0 16v48a8 8 0 0 0 0 16h8a8 8 0 0 0 16 0h8.07a7.992 7.992 0 0 0 15.86 0h.07a23.985 23.985 0 0 0 17.87-40 23.9 23.9 0 0 0 6.13-16zm-24 40h-32v-16h32a8 8 0 0 1 0 16zm0-32h-32v-16h32a8 8 0 0 1 0 16z"/><path d="m120 360h-88a8 8 0 0 0 -8 8v32a8 8 0 0 0 8 8h88a8 8 0 0 0 8-8v-32a8 8 0 0 0 -8-8zm-8 32h-72v-16h72z"/><path d="m120 417h-88a8 8 0 0 0 0 16h88a8 8 0 0 0 0-16z"/><path d="m120 440h-88a8 8 0 0 0 0 16h88a8 8 0 0 0 0-16z"/><path d="m88 465h-56a8 8 0 0 0 0 16h56a8 8 0 0 0 0-16z"/><path d="m480 360h-88a8 8 0 0 0 -8 8v32a8 8 0 0 0 8 8h88a8 8 0 0 0 8-8v-32a8 8 0 0 0 -8-8zm-8 32h-72v-16h72z"/><path d="m480 417h-88a8 8 0 0 0 0 16h88a8 8 0 0 0 0-16z"/><path d="m480 440h-88a8 8 0 0 0 0 16h88a8 8 0 0 0 0-16z"/><path d="m448 465h-56a8 8 0 0 0 0 16h56a8 8 0 0 0 0-16z"/></g></g></svg>